<?xml version="1.0" encoding="UTF-8"?>
<svg id="Layer_1" xmlns="http://www.w3.org/2000/svg" version="1.1" viewBox="0 0 841.89 595.28">
  <!-- Generator: Adobe Illustrator 30.2.1, SVG Export Plug-In . SVG Version: 2.1.1 Build 1)  -->
  <defs>
    <style>
      .st0 {
        fill: #cbc1b5;
      }
    </style>
  </defs>
  <path class="st0" d="M511.32,472.64c-8.17-4.96-13.56-13.38-13.56-22.93,0-1.98.23-3.92.68-5.78,1.46-6.19-2.34-12.41-8.54-13.86-39.39-9.25-68.57-42.58-68.57-82.28,0-15.13,4.24-29.34,11.66-41.65,7.42-12.3,18.04-22.69,30.8-30.2,29.52-10.84,50.36-37.28,50.36-68.18,0-40.56-35.89-73.43-80.18-73.43-20.64,0-39.45,7.14-53.66,18.86l-.15-.2c-43.96,33.64-72.02,84.76-72.02,142.03,0,.84.01,1.68.01,2.52-.08.07-.17.12-.25.17-14.08,9.04-30.96,15.84-49.59,19.63-10.88,2.22-22.36,3.4-34.23,3.4-2.3,0-4.6-.05-6.87-.14-.82-.03-1.59.18-2.23.57-.64.41-1.18,1-1.51,1.7.22.85.54,1.69.95,2.52,6.25,12.71,34.03,22.28,67.33,22.28,7.47,0,14.66-.47,21.4-1.37,4.23-.56,8.27-1.29,12.1-2.15.64-.15,1.28-.3,1.91-.45,5.86-1.42,11.51-3.55,16.88-6.27,5.99-3.06,12.04-5.98,18.21-8.64l23.83-10.27c7.64-3.31,12.55-10.33,13.48-18.07,1.21,9.12-4.07,18.24-13.48,22.04l-23.83,9.64c-6.17,2.49-12.23,5.23-18.21,8.09-5.37,2.56-11.02,4.55-16.88,5.9-.4.09-.82.18-1.23.28,23.77,76.29,99.1,132.04,188.35,132.04,3.1,0,6.17-.07,9.24-.21.34-.01.62-.31.62-.66,0-2.03-1.08-3.9-2.83-4.94ZM384.51,230.73c-4.33,2.71-8.27,2.94-7.54-3.63.59-5.39,6.71-10.34,10.84-13.24,5.96-4.17,13.61-6.36,20.67-4.62,7.07,1.75,13.17,7.94,13.59,15.2-13.5-4.61-25.97-.94-37.57,6.29Z"/>
</svg>