<svg xmlns="http://www.w3.org/2000/svg" viewBox="34.8 181.3 230 230" fill="none">
  <path fill="#cbc1b5" d="M212.27,366.69c-3.46-2.1-5.74-5.67-5.74-9.71,0-.84.1-1.66.29-2.45.62-2.62-.99-5.26-3.62-5.87-16.69-3.92-29.05-18.04-29.05-34.85,0-6.41,1.8-12.43,4.94-17.64,3.14-5.21,7.64-9.61,13.05-12.79,12.51-4.59,21.33-15.79,21.33-28.88,0-17.18-15.2-31.11-33.96-31.11-8.74,0-16.71,3.02-22.73,7.99l-.06-.08c-18.62,14.25-30.51,35.91-30.51,60.16,0,.36,0,.71,0,1.07-.03.03-.07.05-.11.07-5.96,3.83-13.11,6.71-21.01,8.31-4.61.94-9.47,1.44-14.5,1.44-.97,0-1.95-.02-2.91-.06-.35-.01-.67.08-.94.24-.27.18-.5.42-.64.72.09.36.23.72.4,1.07,2.65,5.38,14.41,9.44,28.52,9.44,3.16,0,6.21-.2,9.06-.58,1.79-.24,3.5-.55,5.13-.91.27-.06.54-.13.81-.19,2.48-.6,4.88-1.5,7.15-2.66,2.54-1.29,5.1-2.53,7.72-3.66l10.1-4.35c3.24-1.4,5.32-4.38,5.71-7.65.51,3.87-1.72,7.73-5.71,9.34l-10.1,4.08c-2.61,1.06-5.18,2.21-7.72,3.43-2.27,1.09-4.67,1.93-7.15,2.5-.17.04-.35.08-.52.12,10.07,32.32,41.98,55.93,79.79,55.93,1.31,0,2.61-.03,3.91-.09.15,0,.26-.13.26-.28,0-.86-.46-1.65-1.2-2.09ZM158.56,264.21c-1.84,1.15-3.5,1.25-3.19-1.54.25-2.28,2.84-4.38,4.59-5.61,2.53-1.77,5.76-2.69,8.76-1.96,2.99.74,5.58,3.36,5.76,6.44-5.72-1.95-11-.4-15.91,2.66Z"/>
</svg>
